<svg width="157" height="82" viewBox="0 0 157 82" fill="none" xmlns="http://www.w3.org/2000/svg">
<g filter="url(#filter0_d_0_1)">
<rect x="12" y="12" width="125" height="50" rx="25" fill="#1814F3"/>
</g>
<path d="M112.982 26.9234C113.109 26.3333 112.531 25.8358 111.966 26.0512L87.49 35.3948C87.1955 35.5073 87.0006 35.7897 87 36.105C86.9994 36.4203 87.1931 36.7034 87.4873 36.817L94.3632 39.4726V47.8369C94.3632 48.1897 94.6054 48.4963 94.9487 48.5779C95.2897 48.659 95.6453 48.4967 95.8051 48.1796L98.6489 42.5364L105.589 47.6868C106.011 48.0001 106.618 47.8008 106.771 47.2974C113.251 26.0528 112.971 26.9767 112.982 26.9234ZM106.94 29.6004L95.0169 38.092L89.8866 36.1106L106.94 29.6004ZM95.8866 39.3428L106.28 31.9412C97.3366 41.3758 97.8037 40.8792 97.7647 40.9317C97.7067 41.0096 97.8655 40.7058 95.8866 44.6327V39.3428ZM105.629 45.8197L99.5206 41.2862L110.566 29.6339L105.629 45.8197Z" fill="white"/>
<path d="M43.625 34.4205H45.3182C45.267 32.5568 43.6193 31.2045 41.2557 31.2045C38.9205 31.2045 37.1307 32.5398 37.1307 34.5455C37.1307 36.1648 38.2898 37.1136 40.1591 37.6193L41.5341 37.9943C42.7784 38.3239 43.7386 38.733 43.7386 39.767C43.7386 40.9034 42.6534 41.6534 41.1591 41.6534C39.8068 41.6534 38.6818 41.0511 38.5795 39.7841H36.8182C36.9318 41.892 38.5625 43.1932 41.1705 43.1932C43.9034 43.1932 45.4773 41.7557 45.4773 39.7841C45.4773 37.6875 43.608 36.875 42.1307 36.5114L40.9943 36.2159C40.0852 35.983 38.875 35.5568 38.8807 34.4432C38.8807 33.4545 39.7841 32.7216 41.2159 32.7216C42.5511 32.7216 43.5 33.3466 43.625 34.4205ZM51.2003 43.1761C53.1037 43.1761 54.4503 42.2386 54.8366 40.8182L53.2287 40.5284C52.9219 41.3523 52.1832 41.7727 51.2173 41.7727C49.7628 41.7727 48.7855 40.8295 48.7401 39.1477H54.9446V38.5455C54.9446 35.392 53.0582 34.1591 51.081 34.1591C48.6491 34.1591 47.0469 36.0114 47.0469 38.6932C47.0469 41.4034 48.6264 43.1761 51.2003 43.1761ZM48.7457 37.875C48.8139 36.6364 49.7116 35.5625 51.0923 35.5625C52.4105 35.5625 53.2741 36.5398 53.2798 37.875H48.7457ZM58.5284 37.8182C58.5284 36.4261 59.3807 35.6307 60.5625 35.6307C61.7159 35.6307 62.4148 36.3864 62.4148 37.6534V43H64.1136V37.4489C64.1136 35.2898 62.9261 34.1591 61.142 34.1591C59.8295 34.1591 58.9716 34.767 58.5682 35.6932H58.4602V34.2727H56.8295V43H58.5284V37.8182ZM69.6591 43.1705C71.25 43.1705 71.875 42.1989 72.1818 41.642H72.3239V43H73.983V31.3636H72.2841V35.6875H72.1818C71.875 35.1477 71.2955 34.1591 69.6705 34.1591C67.5625 34.1591 66.0114 35.8239 66.0114 38.6534C66.0114 41.4773 67.5398 43.1705 69.6591 43.1705ZM70.0341 41.7216C68.517 41.7216 67.7273 40.3864 67.7273 38.6364C67.7273 36.9034 68.5 35.6023 70.0341 35.6023C71.517 35.6023 72.3125 36.8125 72.3125 38.6364C72.3125 40.4716 71.5 41.7216 70.0341 41.7216Z" fill="white"/>
<defs>
<filter id="filter0_d_0_1" x="0" y="0" width="157" height="82" filterUnits="userSpaceOnUse" color-interpolation-filters="sRGB">
<feFlood flood-opacity="0" result="BackgroundImageFix"/>
<feColorMatrix in="SourceAlpha" type="matrix" values="0 0 0 0 0 0 0 0 0 0 0 0 0 0 0 0 0 0 127 0" result="hardAlpha"/>
<feMorphology radius="2" operator="erode" in="SourceAlpha" result="effect1_dropShadow_0_1"/>
<feOffset dx="4" dy="4"/>
<feGaussianBlur stdDeviation="9"/>
<feColorMatrix type="matrix" values="0 0 0 0 0.904427 0 0 0 0 0.893194 0 0 0 0 0.908333 0 0 0 0.8 0"/>
<feBlend mode="normal" in2="BackgroundImageFix" result="effect1_dropShadow_0_1"/>
<feBlend mode="normal" in="SourceGraphic" in2="effect1_dropShadow_0_1" result="shape"/>
</filter>
</defs>
</svg>
